<svg width="1442" height="82" viewBox="0 0 1442 82" fill="none" xmlns="http://www.w3.org/2000/svg">
<path d="M1373.02 5.67215C1374.75 5.15869 1377.19 7.90846 1379.24 8.0468C1387.78 8.65317 1390.93 10.5475 1398.66 11.5731C1401.55 11.9582 1405.91 11.9923 1410.7 12.1214C1417.78 12.3097 1425.99 12.6988 1431.67 14.6654C1434.57 15.6473 1436.38 17.037 1437.58 19.0536C1438.79 21.0723 1441.1 23.4937 1441.59 27.039C1441.59 27.0395 1441.59 27.04 1441.59 27.0405C1441.62 27.2259 1441.65 27.414 1441.67 27.6051C1441.9 31.2609 1440.06 35.6085 1440.27 39.7297C1440.47 43.8403 1444.31 70.3329 1438.92 72.2963C1431.53 74.8703 1417.01 68.2351 1413.72 68.5897C1413.03 68.6668 1412.27 68.9718 1411.45 69.366C1409.79 70.2004 1407.92 71.4343 1405.99 71.7467C1396.9 73.223 1392.16 71.4766 1384 78.0934C1380.72 74.6398 1377.44 71.183 1374.17 67.7234C1369.92 69.3419 1363.47 64.775 1360.89 65.0266C1358.76 65.234 1357.52 67.9756 1355.31 68.1016C1352.83 68.2582 1349.03 65.2944 1344.52 65.7289C1337.12 66.4259 1335.79 73.5709 1331.34 74.4585C1326.73 75.3764 1319.58 71.4438 1313.65 73.9028C1312.89 74.6824 1312.17 75.462 1311.41 76.2409C1311.93 78.026 1312.42 79.8106 1312.94 81.5952C1310.01 82.3821 1308.72 78.8379 1306.09 78.6385C1306.03 78.6353 1305.98 78.6328 1305.92 78.631C1301.38 78.4648 1298.73 81.6929 1295.48 81.3173C1292.8 80.9943 1289.72 77.7124 1286.41 77.1643C1281.57 76.2987 1281.64 80.3902 1278.73 80.3691C1277.42 80.8148 1257.7 75.0795 1257.09 74.2849C1249.86 70.5329 1252.17 65.3388 1248.32 62.363C1247.06 61.3628 1245.9 60.5477 1245.62 60.3952C1245.51 60.3289 1245.59 60.4378 1246.6 60.9331C1247.71 61.3549 1249.33 62.5477 1255.45 63.175C1249.35 63.575 1243.77 66.8848 1236.86 69.3231C1232.74 70.7766 1227.59 71.4908 1222.01 71.6463C1227.74 56.312 1207.29 48.9956 1218.15 69.3143C1211.47 67.3404 1207.71 73.9359 1201.07 73.6989C1196.79 73.5102 1193.62 70.7747 1187.65 71.1684C1183.33 71.4488 1178.84 72.9846 1174.75 73.5871C1173.82 74.5264 1171.94 74.0312 1169.34 65.0856C1163.26 68.9241 1153.29 66.461 1154.39 80.6329C1152.34 82.2149 1142.99 76.7692 1139.47 76.746C1136.94 76.7009 1116.39 80.0775 1105.63 79.0779C1104.31 79.0116 1103.31 78.9369 1102.68 78.9072C1097.18 78.7891 1088.28 77.0841 1084.03 77.0988C1079.03 77.3235 1069.57 89.2564 1068.64 70.7061C1060.25 68.5605 1057.76 66.7248 1054.9 63.7899C1054.53 63.3175 1055.11 60.9075 1054.86 60.8484C1054.55 60.7694 1054.1 61.6273 1054.72 62.2536C1053.88 62.5495 1053.01 62.7944 1052.12 62.8769C1047.53 63.302 1044.8 58.1271 1045.45 66.0995C1042.45 67.4895 1039.44 68.8892 1036.45 70.2972C1035.35 68.7812 1034.25 67.2665 1033.15 65.7529C1031.57 67.4722 1030 69.1938 1028.42 70.9179C1030.01 59.3103 1018.75 66.4695 1022.68 72.9824C1016.73 70.7768 1010.74 68.5994 1004.7 66.4343C1005.04 53.2801 991.56 65.4183 992.997 72.5075C992.311 72.5231 991.626 72.5388 990.94 72.5543C984.929 69.358 979.583 72.2317 972.339 70.3628C972.194 70.3245 972.047 70.2843 971.899 70.242C964.403 68.1238 965.124 66.815 962.699 60.841C960.998 61.2324 959.281 61.6227 957.554 62.0121C948.922 78.7858 949.825 50.0937 934.691 63.1386C929.532 52.8464 917.511 58.5772 909.545 61.9186C908.616 62.3067 908.658 64.3261 907.421 64.978C904.414 66.545 896.588 64.1421 897.035 70.6491C894.307 68.8331 891.576 67.0199 888.857 65.2113C887.588 65.9503 886.294 66.6911 885.055 67.432C883.931 67.948 882.911 68.448 881.73 68.9319C881.747 70.9656 881.764 72.9993 881.783 75.0329C876.082 68.3007 865.741 69.6077 862.172 66.9933C861.468 66.4956 861.839 63.71 859.854 62.4675C857.505 60.9842 853.369 60.8972 851.034 59.5961C849.486 62.472 848.033 65.3774 846.606 68.298C842.188 69.3262 841.487 61.0281 838.759 60.1101C838.326 59.9052 828.916 59.8241 828.337 60.0124C824.028 61.2248 825.101 68.1336 812.864 66.4404C810.791 66.1639 809.163 64.0011 807.215 63.6657C807.104 63.6446 806.991 63.6308 806.878 63.6251C803.416 63.4263 792.679 69.1014 791.928 74.1997C787.48 67.943 775.622 70.9015 772.091 69.1964C771.013 68.6699 770.591 64.6412 767.345 63.896C764.665 63.2885 757.996 66.7726 754.558 66.3625C751 65.908 749.573 62.5671 747.95 62.3894C746.394 62.2261 745.147 65.0158 743.075 65.08C736.581 65.2353 730.574 61.0537 725.469 61.1634C718.054 61.3134 711.818 69.6525 705.696 73.4604C704.13 72.9865 702.562 71.2961 700.94 71.3322C680.87 71.724 658.096 70.7657 637.652 68.9542C628.143 68.2301 604.778 56.4819 610.462 75.0281C607.012 78.2649 582.366 69.3505 577.415 68.4375C572.546 67.7677 568.072 70.4584 563.846 69.7744C563.172 69.6644 562.512 69.5457 561.867 69.4193C555.309 68.1536 549.58 65.7033 539.082 68.5252C536.218 69.3149 533.19 73.3364 531.444 73.3719C529.307 73.4055 526.81 69.7603 523.884 69.7068C517.067 69.5779 503.716 71.951 496.471 71.8517C495.143 71.8262 494.454 68.5558 492.506 67.663C484.928 64.1848 476.671 65.0006 478.723 75.4796C468.77 70.0274 459.974 75.7976 450.654 76.1244C430.963 77.2699 394.967 70.9196 376.934 70.9108C366.68 71.1024 364.75 74.8503 353.817 69.5073C353.016 69.0096 352.15 68.4135 351.199 67.7091C349.22 66.2409 347.252 64.5089 344.667 62.9086C338.935 59.1761 332.595 49.9061 327.217 60.4524C319.677 57.6979 313.775 60.3007 306.039 52.3726C305.625 54.6328 305.231 56.8949 304.862 59.1574C303.837 59.3886 302.806 59.6302 301.766 59.882C301.054 57.9137 300.33 55.9483 299.597 53.9857C291.65 54.9396 283.363 65.7918 276.057 67.5966C264.479 70.7743 227.783 75.6123 213.517 73.2157C206.142 72.2732 205.812 76.6497 201.422 67.6917C199.846 68.3642 198.241 69.019 196.606 69.6547C196.502 69.8589 196.397 70.0631 196.291 70.2672C195.47 72.0555 194.659 73.8438 193.858 75.6323C185.686 75.7148 176.14 72.6368 168.323 72.7013C154.17 72.836 133.294 78.399 119.836 75.4749C118.636 75.2251 117.272 74.6283 115.846 73.9443C113.039 72.5696 110.104 70.8437 107.697 70.941C102.442 71.1409 101.296 77.9902 94.5842 78.2046C82.9716 78.5965 61.8061 70.4129 51.1153 70.6722C47.9583 70.7571 46.3367 73.2423 44.1596 73.4409C34.8497 74.2882 27.3134 73.7542 18.2414 77.2108C9.12105 70.1806 10.3574 61.7816 7.99845 53.1194C6.15616 46.5786 0.480184 31.2837 0.0275373 25.6017C-0.298299 21.616 2.38251 16.7134 1.82436 12.312C12.7842 9.58161 17.094 13.6315 25.7146 20.1925C42.1221 20.7447 58.5823 21.0188 74.9294 20.9234C76.3886 23.3109 77.875 25.6954 79.3569 28.0766C79.3569 28.0817 79.3568 28.0869 79.3568 28.0921C85.6731 30.8564 88.3392 24.7195 91.693 23.3056C98.0294 20.6353 105.513 18.8046 113.634 17.4576C138.778 13.2723 169.862 16.0207 196.283 18.1341C205.994 19.0803 215.175 19.0185 223.064 18.153C229.987 17.6941 252.624 9.01757 259.008 11.2615C260.604 11.8911 261.885 15.3427 263.374 15.1276C275.757 9.7367 288.905 4.13997 303.694 -1.15476e-05C326.271 0.967933 349.996 1.26872 372.538 6.71617C379.717 8.29096 386.803 9.50622 393.867 10.7304C449.559 22.5585 498.268 2.20951 573.024 9.63454C584.005 11.5752 597.4 12.5341 610.578 13.2267C624.089 13.9501 641.563 11.2761 655.14 12.8832C660.822 13.5497 663.289 19.3964 670.711 14.8672C670.822 16.4493 670.933 18.0314 671.044 19.6136C677.563 17.5641 681.658 13.8573 689.005 13.2827C695.19 12.8143 711.604 12.0253 717.157 12.4209C720.021 12.6191 719.05 15.6167 721.732 15.5024C726.311 15.2858 735.871 10.8236 742.233 10.5772C747.96 10.3552 757.783 13.3921 762.188 12.7392C776.268 10.6949 791.233 6.01389 807.215 5.96608C809.407 5.96427 811.423 6.04531 813.558 6.2273C818.487 6.6513 824.928 10.692 826.45 10.6541C829.574 10.5576 830.605 6.8807 832.817 6.52194C843.253 4.42622 862.94 11.6501 871.836 14.3258C877.393 15.6992 878.422 15.7857 883.474 15.6826C908.973 14.8236 934.747 13.4741 959.168 13.385C962.625 13.3718 966.508 13.3089 970.549 13.2161C989.337 12.7775 1014.19 11.6508 1029.39 13.5947C1033.36 14.0972 1032.42 18.2072 1035.73 18.1294C1039.41 18.0452 1041.36 15.2499 1043.08 14.9952C1046.04 14.5535 1049.9 14.0291 1054.19 13.548C1072.22 13.59 1079.57 18.7813 1085.84 20.8677C1091.83 23.3852 1095.31 24.8866 1097.29 26.4919C1098.26 27.3077 1098.4 30.5994 1099.11 30.7144C1099.47 30.7768 1100.55 28.746 1101.45 28.6049C1102.38 28.4646 1103.18 28.3008 1103.94 28.1293C1110.3 26.8355 1121.56 23.9163 1136.99 19.3492C1147.22 16.5755 1158.73 12.209 1175.71 11.9463C1196.95 12.6559 1217.01 2.28147 1250.69 2.5892C1253.98 2.72762 1256.87 3.65415 1259.29 4.82547C1266.4 6.02166 1268.34 8.05297 1270.04 9.28944C1271.63 10.6286 1272.38 11.6843 1273.01 12.5809C1274.15 14.328 1274.53 15.3947 1274.92 15.6078C1277.21 16.8869 1280.85 14.2317 1284.57 15.2327C1292.89 17.4097 1298.8 20.8599 1306.82 21.3964C1312.13 21.6392 1317.32 21.6545 1321.87 21.0366C1329.28 20.0403 1339.45 14.6776 1346.73 13.4959C1352.55 12.5569 1366.29 14.6748 1368.87 12.2945C1370.42 10.8585 1371.15 6.25259 1373.02 5.67215ZM1181.19 67.8254C1181.84 63.2861 1177.41 63.9285 1174.87 65.9088C1174.34 67.1748 1174.23 69.0192 1174.69 70.5356C1174.72 70.6287 1174.75 70.6938 1174.8 70.7339C1176.54 71.1137 1180.95 69.5516 1181.19 67.8254ZM673.743 59.176C673.889 61.2762 674.036 63.3764 674.183 65.4766C675.617 64.5703 677.051 63.6624 678.484 62.7532C677.637 61.5088 676.792 60.2638 675.948 59.0184C675.213 59.0713 674.478 59.1239 673.743 59.176Z" fill="#063161"/>
</svg>
