<svg width="138" height="221" viewBox="0 0 138 221" fill="none" xmlns="http://www.w3.org/2000/svg">
<path d="M0.000195445 18.2001C22.6335 6.06675 45.1502 8.29697e-05 67.5502 8.29697e-05C90.1835 8.29697e-05 107.334 5.71675 119 17.1501C130.667 28.5834 136.5 44.8001 136.5 65.8001C136.5 86.5668 132.767 103.6 125.3 116.9C118.067 130.2 104.65 148.167 85.0502 170.8H137.2V220.85H8.7502L5.9502 185.15C28.1169 161.583 43.8669 143.733 53.2002 131.6C62.5335 119.467 68.8335 109.433 72.1002 101.5C75.3669 93.5668 77.0002 86.2168 77.0002 79.4501C77.0002 72.4501 75.2502 67.0834 71.7502 63.3501C68.4835 59.6168 64.1669 57.7501 58.8002 57.7501C53.4335 57.7501 48.3002 58.4501 43.4002 59.8501C36.6335 61.4834 25.9002 65.6834 11.2002 72.4501L0.000195445 18.2001Z" fill="#457BA7" fill-opacity="0.18"/>
</svg>
