<svg width="138" height="225" viewBox="0 0 138 225" fill="none" xmlns="http://www.w3.org/2000/svg">
<path d="M68.2498 8.29697e-05C112.116 8.29697e-05 134.05 19.0168 134.05 57.0501C134.05 68.4834 131.95 77.9334 127.75 85.4001C123.55 92.8668 116.666 99.6334 107.1 105.7V107.1C117.833 112 125.533 118.533 130.2 126.7C134.866 134.633 137.2 145.017 137.2 157.85C137.2 179.083 131.133 195.533 119 207.2C106.866 218.633 89.2498 224.35 66.1498 224.35C54.7165 224.35 44.9165 223.3 36.7498 221.2C28.8165 219.333 18.5498 215.717 5.9498 210.35L18.1998 161.35C37.5665 168.35 50.9831 171.85 58.4498 171.85C69.4165 171.85 74.8998 165.783 74.8998 153.65C74.8998 140.583 67.5498 134.05 52.8498 134.05H31.1498V88.2001H53.1998C59.7331 88.2001 64.2831 86.8001 66.8498 84.0001C69.6498 80.9668 71.0498 76.5334 71.0498 70.7001C71.0498 59.5001 65.5665 53.9001 54.5998 53.9001C46.8998 53.9001 33.2498 57.8668 13.6498 65.8001L-0.000194702 18.5501C12.8331 11.5501 24.2665 6.76675 34.2998 4.20009C44.3331 1.40009 55.6498 8.29697e-05 68.2498 8.29697e-05Z" fill="#457BA7" fill-opacity="0.18"/>
</svg>
