<svg width="32" height="32" viewBox="0 0 32 32" fill="none" xmlns="http://www.w3.org/2000/svg">
<rect width="32" height="32" rx="8" fill="#457BA7"/>
<rect width="16" height="16" transform="translate(8 8)" fill="#457BA7"/>
<path d="M16.0286 17.346L22.0886 12.018C22.0595 12.01 22.0299 12.004 22 12H9.99997C9.97226 12.0035 9.94485 12.0091 9.91797 12.0167L16.0286 17.346Z" fill="white"/>
<path d="M16.846 18.3507C16.6022 18.5446 16.3002 18.651 15.9887 18.6527C15.6957 18.6529 15.411 18.5551 15.18 18.3747L9.33203 13.2754V20.0001C9.33203 20.3537 9.47251 20.6928 9.72256 20.9429C9.9726 21.1929 10.3117 21.3334 10.6654 21.3334H21.332C21.6857 21.3334 22.0248 21.1929 22.2748 20.9429C22.5249 20.6928 22.6654 20.3537 22.6654 20.0001V13.2761L16.846 18.3507Z" fill="white"/>
</svg>
