<svg width="14" height="15" viewBox="0 0 14 15" fill="none" xmlns="http://www.w3.org/2000/svg">
<path d="M9.57916 1.09084C8.92427 0.387386 8.00959 0 7 0C5.98503 0 5.06731 0.385042 4.41546 1.08415C3.75653 1.79095 3.43548 2.75155 3.51087 3.78882C3.66028 5.83523 5.22548 7.49996 7 7.49996C8.77452 7.49996 10.337 5.83557 10.4888 3.78949C10.5652 2.76159 10.2421 1.803 9.57916 1.09084ZM12.9229 14.9999H1.07709C0.922035 15.0019 0.768484 14.9695 0.627605 14.905C0.486727 14.8406 0.362063 14.7457 0.262685 14.6273C0.0439413 14.3671 -0.0442294 14.0119 0.0210573 13.6526C0.305088 12.085 1.19151 10.7681 2.58474 9.84369C3.82249 9.02305 5.39038 8.57138 7 8.57138C8.60962 8.57138 10.1775 9.02339 11.4153 9.84369C12.8085 10.7678 13.6949 12.0846 13.9789 13.6523C14.0442 14.0115 13.9561 14.3668 13.7373 14.6269C13.638 14.7454 13.5133 14.8404 13.3724 14.9049C13.2316 14.9694 13.078 15.0019 12.9229 14.9999Z" fill="#457BA7"/>
</svg>
