<svg width="32" height="32" viewBox="0 0 32 32" fill="none" xmlns="http://www.w3.org/2000/svg">
<rect width="32" height="32" rx="8" fill="#457BA7"/>
<rect width="16" height="16" transform="translate(8 8)" fill="#457BA7"/>
<path d="M20.5914 17.3333H18.48C18.1068 17.3333 17.7488 17.4816 17.4849 17.7455C17.221 18.0095 17.0727 18.3674 17.0727 18.7407V19.852C16.4257 19.8524 15.7849 19.7253 15.1871 19.4779C14.5892 19.2305 14.046 18.8677 13.5885 18.4102C13.131 17.9527 12.7682 17.4095 12.5208 16.8116C12.2734 16.2138 12.1463 15.573 12.1467 14.926H13.258C13.4428 14.926 13.6259 14.8896 13.7966 14.8189C13.9673 14.7481 14.1225 14.6445 14.2532 14.5138C14.3839 14.3831 14.4875 14.228 14.5582 14.0572C14.629 13.8865 14.6654 13.7035 14.6654 13.5187V11.4073C14.6654 11.0341 14.5171 10.6761 14.2532 10.4122C13.9892 10.1483 13.6313 10 13.258 10H11.4434C10.8834 10 10.3464 10.2224 9.95043 10.6184C9.55448 11.0143 9.33203 11.5514 9.33203 12.1113V14.926C9.33107 15.9428 9.53063 16.9498 9.91929 17.8894C10.308 18.8289 10.8781 19.6826 11.5971 20.4016C12.3161 21.1206 13.1698 21.6907 14.1093 22.0794C15.0489 22.4681 16.0559 22.6676 17.0727 22.6667H19.8874C20.4473 22.6667 20.9844 22.4442 21.3803 22.0483C21.7763 21.6523 21.9987 21.1153 21.9987 20.5553V18.7407C21.9987 18.3674 21.8504 18.0095 21.5865 17.7455C21.3226 17.4816 20.9646 17.3333 20.5914 17.3333Z" fill="white"/>
</svg>
