<svg width="22" height="19" viewBox="0 0 22 19" fill="none" xmlns="http://www.w3.org/2000/svg">
<g clip-path="url(#clip0_322_267)">
<path d="M11.8457 7.77273L11.8457 2.59091C11.8457 1.87122 12.0925 1.25947 12.5861 0.755685C13.0796 0.251897 13.679 3.39746e-06 14.3841 3.39746e-06L19.4611 3.39746e-06C20.1662 3.39746e-06 20.7655 0.251897 21.2591 0.755685C21.7527 1.25947 21.9995 1.87122 21.9995 2.59091V12.0909C21.9995 13.0265 21.821 13.9194 21.4641 14.7695C21.1071 15.6197 20.6245 16.3551 20.0163 16.9759C19.4082 17.5966 18.6876 18.0891 17.8547 18.4535C17.0217 18.8178 16.1469 19 15.2303 19H14.3841C14.155 19 13.9566 18.9145 13.7892 18.7436C13.6217 18.5727 13.538 18.3703 13.538 18.1364V16.4091C13.538 16.1752 13.6217 15.9728 13.7892 15.8018C13.9566 15.6309 14.155 15.5455 14.3841 15.5455H15.2303C16.1646 15.5455 16.9623 15.2081 17.6233 14.5334C18.2844 13.8587 18.6149 13.0445 18.6149 12.0909L18.6149 11.6591C18.6149 11.2992 18.4915 10.9934 18.2447 10.7415C17.9979 10.4896 17.6982 10.3636 17.3457 10.3636H14.3841C13.679 10.3636 13.0796 10.1117 12.5861 9.60796C12.0925 9.10417 11.8457 8.49243 11.8457 7.77273ZM-0.000484347 7.77273V2.59091C-0.000484347 1.87122 0.246309 1.25947 0.739901 0.755685C1.23349 0.251897 1.83285 3.39746e-06 2.53798 3.39746e-06L7.6149 3.39746e-06C8.32003 3.39746e-06 8.91939 0.251897 9.41298 0.755685C9.90656 1.25947 10.1534 1.87122 10.1534 2.59091L10.1534 12.0909C10.1534 13.0265 9.97487 13.9194 9.6179 14.7695C9.26093 15.6197 8.77836 16.3551 8.17019 16.9759C7.56201 17.5966 6.84146 18.0891 6.00853 18.4535C5.1756 18.8178 4.3008 19 3.38413 19H2.53798C2.30881 19 2.11049 18.9145 1.94303 18.7436C1.77556 18.5727 1.69182 18.3703 1.69182 18.1364V16.4091C1.69182 16.1752 1.77556 15.9728 1.94303 15.8018C2.11049 15.6309 2.30881 15.5455 2.53798 15.5455H3.38413C4.31843 15.5455 5.1161 15.2081 5.77716 14.5334C6.43822 13.8587 6.76875 13.0445 6.76875 12.0909V11.6591C6.76875 11.2992 6.64535 10.9934 6.39855 10.7415C6.15176 10.4896 5.85208 10.3636 5.49951 10.3636H2.53798C1.83285 10.3636 1.23349 10.1117 0.739901 9.60796C0.246309 9.10417 -0.000484347 8.49243 -0.000484347 7.77273Z" fill="#457BA7"/>
</g>
<defs>
<clipPath id="clip0_322_267">
<rect width="22" height="19" fill="white" transform="matrix(-1 0 0 -1 21.9995 19)"/>
</clipPath>
</defs>
</svg>
