<svg width="17" height="14" viewBox="0 0 17 14" fill="none" xmlns="http://www.w3.org/2000/svg">
<path d="M7.84615 8.27273V12.0909C7.84615 12.6212 7.65545 13.072 7.27404 13.4432C6.89263 13.8144 6.42949 14 5.88462 14H1.96154C1.41667 14 0.953526 13.8144 0.572115 13.4432C0.190705 13.072 0 12.6212 0 12.0909V5.09091C0 4.40152 0.137921 3.74361 0.413762 3.11719C0.689603 2.49077 1.0625 1.94886 1.53245 1.49148C2.0024 1.03409 2.55919 0.671165 3.20282 0.402699C3.84645 0.134233 4.52244 0 5.23077 0H5.88462C6.0617 0 6.21494 0.0629735 6.34435 0.18892C6.47376 0.314867 6.53846 0.464015 6.53846 0.636364V1.90909C6.53846 2.08144 6.47376 2.23059 6.34435 2.35653C6.21494 2.48248 6.0617 2.54545 5.88462 2.54545H5.23077C4.50881 2.54545 3.89243 2.79403 3.38161 3.29119C2.87079 3.78835 2.61538 4.38826 2.61538 5.09091V5.40909C2.61538 5.67424 2.71074 5.89962 2.90144 6.08523C3.09215 6.27083 3.32372 6.36364 3.59615 6.36364H5.88462C6.42949 6.36364 6.89263 6.54924 7.27404 6.92045C7.65545 7.29167 7.84615 7.74242 7.84615 8.27273ZM17 8.27273V12.0909C17 12.6212 16.8093 13.072 16.4279 13.4432C16.0465 13.8144 15.5833 14 15.0385 14H11.1154C10.5705 14 10.1074 13.8144 9.72596 13.4432C9.34455 13.072 9.15385 12.6212 9.15385 12.0909V5.09091C9.15385 4.40152 9.29177 3.74361 9.56761 3.11719C9.84345 2.49077 10.2163 1.94886 10.6863 1.49148C11.1562 1.03409 11.713 0.671165 12.3567 0.402699C13.0003 0.134233 13.6763 0 14.3846 0H15.0385C15.2155 0 15.3688 0.0629735 15.4982 0.18892C15.6276 0.314867 15.6923 0.464015 15.6923 0.636364V1.90909C15.6923 2.08144 15.6276 2.23059 15.4982 2.35653C15.3688 2.48248 15.2155 2.54545 15.0385 2.54545H14.3846C13.6627 2.54545 13.0463 2.79403 12.5355 3.29119C12.0246 3.78835 11.7692 4.38826 11.7692 5.09091V5.40909C11.7692 5.67424 11.8646 5.89962 12.0553 6.08523C12.246 6.27083 12.4776 6.36364 12.75 6.36364H15.0385C15.5833 6.36364 16.0465 6.54924 16.4279 6.92045C16.8093 7.29167 17 7.74242 17 8.27273Z" fill="#457BA7"/>
</svg>
