<svg width="20" height="20" viewBox="0 0 20 20" fill="none" xmlns="http://www.w3.org/2000/svg">
<path d="M8.33317 8.33342C8.33317 8.1686 8.2843 8.00748 8.19273 7.87044C8.10116 7.7334 7.97102 7.62659 7.81874 7.56352C7.66647 7.50044 7.49892 7.48394 7.33727 7.51609C7.17561 7.54825 7.02713 7.62762 6.91059 7.74416C6.79404 7.8607 6.71467 8.00919 6.68252 8.17084C6.65037 8.33249 6.66687 8.50005 6.72994 8.65232C6.79301 8.80459 6.89982 8.93474 7.03687 9.02631C7.17391 9.11787 7.33502 9.16675 7.49984 9.16675C7.72085 9.16675 7.93282 9.07895 8.0891 8.92267C8.24538 8.76639 8.33317 8.55443 8.33317 8.33342ZM12.0832 11.7167C11.9886 11.6613 11.8839 11.6251 11.7753 11.6102C11.6666 11.5952 11.5561 11.6019 11.4501 11.6298C11.344 11.6576 11.2445 11.7062 11.1572 11.7726C11.0699 11.839 10.9966 11.922 10.9415 12.0167C10.8469 12.1831 10.7099 12.3214 10.5445 12.4176C10.3791 12.5138 10.1912 12.5645 9.99984 12.5645C9.80849 12.5645 9.62056 12.5138 9.45515 12.4176C9.28975 12.3214 9.15278 12.1831 9.05817 12.0167C9.00304 11.922 8.92973 11.839 8.84246 11.7726C8.7552 11.7062 8.65568 11.6576 8.54962 11.6298C8.44355 11.6019 8.33303 11.5952 8.22439 11.6102C8.11575 11.6251 8.01112 11.6613 7.91651 11.7167C7.7259 11.8267 7.5865 12.0075 7.52874 12.2199C7.47098 12.4322 7.49953 12.6587 7.60817 12.8501C7.84988 13.2708 8.19826 13.6202 8.61818 13.8633C9.03809 14.1063 9.51467 14.2342 9.99984 14.2342C10.485 14.2342 10.9616 14.1063 11.3815 13.8633C11.8014 13.6202 12.1498 13.2708 12.3915 12.8501C12.5002 12.6587 12.5287 12.4322 12.4709 12.2199C12.4132 12.0075 12.2738 11.8267 12.0832 11.7167ZM12.4998 7.50008C12.335 7.50008 12.1739 7.54896 12.0369 7.64052C11.8998 7.73209 11.793 7.86224 11.7299 8.01451C11.6669 8.16678 11.6504 8.33434 11.6825 8.49599C11.7147 8.65764 11.794 8.80613 11.9106 8.92267C12.0271 9.03921 12.1756 9.11858 12.3373 9.15074C12.4989 9.18289 12.6665 9.16639 12.8187 9.10331C12.971 9.04024 13.1012 8.93343 13.1927 8.79639C13.2843 8.65935 13.3332 8.49823 13.3332 8.33342C13.3332 8.1124 13.2454 7.90044 13.0891 7.74416C12.9328 7.58788 12.7209 7.50008 12.4998 7.50008ZM9.99984 1.66675C8.35166 1.66675 6.7405 2.15549 5.37009 3.07117C3.99968 3.98685 2.93158 5.28834 2.30084 6.81105C1.67011 8.33377 1.50509 10.0093 1.82663 11.6258C2.14817 13.2423 2.94185 14.7272 4.10728 15.8926C5.27272 17.0581 6.75758 17.8517 8.37409 18.1733C9.9906 18.4948 11.6662 18.3298 13.1889 17.6991C14.7116 17.0683 16.0131 16.0002 16.9288 14.6298C17.8444 13.2594 18.3332 11.6483 18.3332 10.0001C18.3332 8.90573 18.1176 7.8221 17.6988 6.81105C17.28 5.80001 16.6662 4.88135 15.8924 4.10752C15.1186 3.3337 14.1999 2.71987 13.1889 2.30109C12.1778 1.8823 11.0942 1.66675 9.99984 1.66675ZM9.99984 16.6667C8.4476 16.6734 6.94168 16.1383 5.74177 15.1535C4.54186 14.1688 3.72319 12.7962 3.42694 11.2725C3.13069 9.74877 3.37543 8.16943 4.11895 6.80684C4.86247 5.44424 6.05817 4.38381 7.49984 3.80841C7.49127 3.92771 7.49127 4.04746 7.49984 4.16675C7.49984 4.82979 7.76323 5.46567 8.23207 5.93451C8.70091 6.40336 9.3368 6.66675 9.99984 6.66675C10.2209 6.66675 10.4328 6.57895 10.5891 6.42267C10.7454 6.26639 10.8332 6.05443 10.8332 5.83342C10.8332 5.6124 10.7454 5.40044 10.5891 5.24416C10.4328 5.08788 10.2209 5.00008 9.99984 5.00008C9.77883 5.00008 9.56687 4.91228 9.41059 4.756C9.25431 4.59972 9.16651 4.38776 9.16651 4.16675C9.16651 3.94573 9.25431 3.73377 9.41059 3.57749C9.56687 3.42121 9.77883 3.33341 9.99984 3.33341C11.768 3.33341 13.4636 4.03579 14.7139 5.28604C15.9641 6.53628 16.6665 8.23197 16.6665 10.0001C16.6665 11.7682 15.9641 13.4639 14.7139 14.7141C13.4636 15.9644 11.768 16.6667 9.99984 16.6667Z" fill="#457BA7"/>
</svg>
